# xmcd
#
# Track frame offsets:
#	150
#	18233
#	35028
#	53398
#	65708
#	77435
#	94782
#	110325
#	128744
#	140107
#	161286
#	174564
#
# Disc length: 2498 seconds
#
# Revision: 5
# Processed by: cddbd v1.5.2PL0 Copyright (c) Steve Scherf et al.
# Submitted via: EasyCDDAExtractor 15.3.0.1
#
DISCID=9509c00c
DTITLE=Cher - Icon
DYEAR=2011
DGENRE=Pop/Rock
TTITLE0=If I Could Turn Back Time
TTITLE1=I Found Someone
TTITLE2=After All (Love Theme From Chances Are) (Cher With Peter Cetera)
TTITLE3=Half Breed
TTITLE4=Gypsys, Tramps and Thieves
TTITLE5=We All Sleep Alone
TTITLE6=Dark Lady
TTITLE7=Just Like Jesse James
TTITLE8=The Way Of Love
TTITLE9=Love And Understanding
TTITLE10=Living In A House Divided
TTITLE11=The Shoop Shoop Song (It's In His Kiss)
EXTD=
EXTT0=
EXTT1=
EXTT2=
EXTT3=
EXTT4=
EXTT5=
EXTT6=
EXTT7=
EXTT8=
EXTT9=
EXTT10=
EXTT11=
PLAYORDER=
